<svg id="icons" xmlns="http://www.w3.org/2000/svg" width="54.8" height="59.5" viewBox="0 0 54.8 59.5"><style>.st0{fill:#fff}</style><path class="st0" d="M28.8 27.6V12.5c0-.6-.4-1-1-1s-1 .4-1 1v15.1c-1.7.4-3 2-3 3.9 0 .7.2 1.4.6 2l-7.8 7.8c-.4.4-.4 1 0 1.4.2.2.5.3.7.3.3 0 .5-.1.7-.3l7.8-7.8c.6.4 1.3.6 2 .6 2.2 0 4-1.8 4-4 0-1.9-1.3-3.5-3-3.9z"/><path class="st0" d="M46 51.4c5.4-4.9 8.8-12 8.8-19.9 0-14.9-12.1-27-27-27s-27 12.1-27 27C.8 39.1 4 45.9 9 50.8l-5 7c-.3.4-.2 1.1.2 1.4.2.1.4.2.6.2.3 0 .6-.1.8-.4l4.9-6.9c4.7 3.9 10.7 6.3 17.3 6.3 6.3 0 12.1-2.2 16.7-5.8L49 59c.2.3.5.4.8.4.2 0 .4-.1.6-.2.4-.3.6-.9.2-1.4L46 51.4zM2.8 31.5c0-13.8 11.2-25 25-25s25 11.2 25 25-11.2 25-25 25-25-11.3-25-25z"/><path class="st0" d="M53.7 14c0-.1 3.5-5.9-3.2-11.3C48.3 1 46 .1 43.6.1c-3.1 0-5.3 1.5-5.4 1.5l-1.1.8L53 14.9l.7-.9zm-1.3-2.2L40.7 2.6c.7-.3 1.7-.5 2.9-.5 1.9 0 3.8.7 5.6 2.1 3.8 3 3.6 6.1 3.2 7.6zM1.6 14.9L17.4 2.5l-.9-.8c-.1-.1-2-1.7-5.2-1.7-2.4 0-4.8.9-7.1 2.7C-2.7 7.8.9 13.9 1 14l.6.9zM5.4 4.3c2-1.5 4-2.3 5.9-2.3 1.2 0 2.1.3 2.8.6L2.2 11.9c-.4-1.6-.6-4.7 3.2-7.6z"/></svg>